# xmcd
#
# Track frame offsets: 
#        150
#        18456
#        42796
#        65992
#        83070
#        100726
#        118171
#        118646
#        133195
#        148600
#        171093
#        191933
#        203422
#        221217
#        239751
#        255446
#        279974
#        294444
#        306876
#        323681
#        343737
#
# Disc length: 4771 seconds
#
# Revision: 0
# Processed by: cddbd v1.4PL0 Copyright (c) Steve Scherf et al.
# Submitted via: ExactAudioCopy v0.95a3
#
DISCID=4512a115
DTITLE=ЛЮБЭ - DeLux Collection [CD1]
DYEAR=2001
DGENRE=Ballad
TTITLE0=Опера
TTITLE1=Ребята с нашего двора
TTITLE2=Уходит рота солдат
TTITLE3=Там, за туманами...
TTITLE4=Что я в жизни успел?
TTITLE5=Время для любви после войны
TTITLE6=prefix
TTITLE7=Самоволочка
TTITLE8=Парень молодой
TTITLE9=Дорога, дорога...
TTITLE10=Сирота казанская
TTITLE11=Кострома
TTITLE12=Скоро дембель!
TTITLE13=Денщики окраин городских
TTITLE14=Не валяй дурака, Америка!
TTITLE15=Давай наяривай
TTITLE16=Атас!
TTITLE17=Служили два товарища
TTITLE18=Батька Махно
TTITLE19=Мама
TTITLE20=Футбол
EXTD=
EXTT0=
EXTT1=
EXTT2=
EXTT3=
EXTT4=
EXTT5=
EXTT6=
EXTT7=
EXTT8=
EXTT9=
EXTT10=
EXTT11=
EXTT12=
EXTT13=
EXTT14=
EXTT15=
EXTT16=
EXTT17=
EXTT18=
EXTT19=
EXTT20=
PLAYORDER=
